<svg width="48" height="41" viewBox="0 0 48 41" fill="none" xmlns="http://www.w3.org/2000/svg">
<path d="M11.0617 33.5706L0.666656 40.8623V2.32061C0.666656 1.76807 0.912489 1.23817 1.35007 0.847468C1.78766 0.456767 2.38115 0.237274 2.99999 0.237274H45C45.6188 0.237274 46.2123 0.456767 46.6499 0.847468C47.0875 1.23817 47.3333 1.76807 47.3333 2.32061V31.4873C47.3333 32.0398 47.0875 32.5697 46.6499 32.9604C46.2123 33.3511 45.6188 33.5706 45 33.5706H11.0617ZM12.3333 14.8206V18.9873H17V14.8206H12.3333ZM21.6667 14.8206V18.9873H26.3333V14.8206H21.6667ZM31 14.8206V18.9873H35.6667V14.8206H31Z" fill="#B2B2B2"/>
</svg>
